<?xml version="1.0" encoding="UTF-8" standalone="no"?>
<!-- Created with Inkscape (http://www.inkscape.org/) -->

<svg
   xmlns:dc="http://purl.org/dc/elements/1.1/"
   xmlns:cc="http://creativecommons.org/ns#"
   xmlns:rdf="http://www.w3.org/1999/02/22-rdf-syntax-ns#"
   xmlns:svg="http://www.w3.org/2000/svg"
   xmlns="http://www.w3.org/2000/svg"
   xmlns:sodipodi="http://sodipodi.sourceforge.net/DTD/sodipodi-0.dtd"
   xmlns:inkscape="http://www.inkscape.org/namespaces/inkscape"
   width="1062.9921"
   height="708.66144"
   viewBox="0 0 1062.9921 708.66142"
   id="svg4162"
   version="1.1"
   inkscape:version="0.91 r13725"
   sodipodi:docname="volume box.svg">
  <sodipodi:namedview
     id="base"
     pagecolor="#ffffff"
     bordercolor="#666666"
     borderopacity="1.0"
     inkscape:pageopacity="0.0"
     inkscape:pageshadow="2"
     inkscape:zoom="0.9899495"
     inkscape:cx="184.15552"
     inkscape:cy="615.10116"
     inkscape:document-units="mm"
     inkscape:current-layer="layer1"
     showgrid="true"
     inkscape:window-width="1920"
     inkscape:window-height="1017"
     inkscape:window-x="-8"
     inkscape:window-y="-8"
     inkscape:window-maximized="1"
     units="px"
     gridtolerance="10"
     inkscape:snap-grids="false"
     inkscape:snap-smooth-nodes="false"
     inkscape:object-nodes="true"
     inkscape:snap-object-midpoints="true"
     inkscape:snap-intersection-paths="true"
     inkscape:object-paths="true">
    <inkscape:grid
       type="xygrid"
       id="grid4729" />
  </sodipodi:namedview>
  <defs
     id="defs4164" />
  <metadata
     id="metadata4167">
    <rdf:RDF>
      <cc:Work
         rdf:about="">
        <dc:format>image/svg+xml</dc:format>
        <dc:type
           rdf:resource="http://purl.org/dc/dcmitype/StillImage" />
        <dc:title></dc:title>
      </cc:Work>
    </rdf:RDF>
  </metadata>
  <g
     id="layer1"
     inkscape:groupmode="layer"
     inkscape:label="50 [feed=300]"
     transform="translate(0,-343.70078)">
    <g
       id="g4719">
      <g
         id="g4721" />
    </g>
    <g
       id="g4742" />
    <g
       id="g4763">
      <g
         id="g4765" />
    </g>
    <g
       id="g4789">
      <g
         id="g4791" />
    </g>
    <g
       id="g4264"
       transform="translate(212.13203,-163.97119)">
      <path
         inkscape:connector-curvature="0"
         d="m 193.77846,526.64704 17.81193,0 0,-10.62992 18.34343,0 0,10.62992 17.63477,0 0,-10.62992 18.34342,0 0,10.62992 17.63477,0 0,-10.62992 18.34343,0 0,10.62992 17.63477,0 0,-10.62992 18.34342,0 0,10.62992 17.63477,0 0,-10.62992 18.34343,0 0,10.62992 17.63477,0 0,-10.62992 18.34342,0 0,10.62992 17.81194,0"
         style="fill:none;stroke:#000000"
         inkscape:label="part"
         id="path4154" />
      <path
         inkscape:connector-curvature="0"
         d="m 427.63673,526.64704 0,10.3009 -10.62992,0 0,20.39932 10.62992,0 0,21.10799 -10.62992,0 0,20.39933 10.62992,0 0,21.10798 -10.62992,0 0,20.39933 10.62992,0 0,10.3009"
         style="fill:none;stroke:#000000"
         inkscape:label="part"
         id="path4156" />
      <path
         inkscape:connector-curvature="0"
         d="m 427.63673,650.66279 -17.81194,0 0,10.62992 -18.34342,0 0,-10.62992 -17.63477,0 0,10.62992 -18.34343,0 0,-10.62992 -17.63477,0 0,10.62992 -18.34342,0 0,-10.62992 -17.63477,0 0,10.62992 -18.34343,0 0,-10.62992 -17.63477,0 0,10.62992 -18.34342,0 0,-10.62992 -17.63477,0 0,10.62992 -18.34343,0 0,-10.62992 -17.81193,0"
         style="fill:none;stroke:#000000"
         inkscape:label="part"
         id="path4158" />
      <path
         inkscape:connector-curvature="0"
         d="m 193.77846,650.66279 0,-10.3009 10.62992,0 0,-20.39933 -10.62992,0 0,-21.10798 10.62992,0 0,-20.39933 -10.62992,0 0,-21.10799 10.62992,0 0,-20.39932 -10.62992,0 0,-10.3009"
         style="fill:none;stroke:#000000"
         inkscape:label="part"
         id="path4160" />
    </g>
    <g
       id="g4252"
       transform="translate(-34.345182,-15.999081)">
      <path
         inkscape:connector-curvature="0"
         d="m 55.589482,377.82814 9.94657,0 0,-10.62992 21.107986,0 0,10.62992 20.399322,0 0,-10.62992 21.10799,0 0,10.62992 20.39932,0 0,-10.62992 21.10799,0 0,10.62992 9.94657,0"
         style="fill:none;stroke:#000000"
         inkscape:label="part"
         id="path4162" />
      <path
         inkscape:connector-curvature="0"
         d="m 179.60523,377.82814 0,9.94657 10.62992,0 0,21.10799 -10.62992,0 0,20.39932 10.62992,0 0,21.10799 -10.62992,0 0,20.39932 10.62992,0 0,21.10799 -10.62992,0 0,9.94657"
         style="fill:none;stroke:#000000"
         inkscape:label="part"
         id="path4164" />
      <path
         inkscape:connector-curvature="0"
         d="m 179.60523,501.84389 -9.94657,0 0,10.62992 -21.10799,0 0,-10.62992 -20.39932,0 0,10.62992 -21.10799,0 0,-10.62992 -20.399322,0 0,10.62992 -21.107986,0 0,-10.62992 -9.94657,0"
         style="fill:none;stroke:#000000"
         inkscape:label="part"
         id="path4166" />
      <path
         inkscape:connector-curvature="0"
         d="m 55.589482,501.84389 0,-9.94657 -10.629921,0 0,-21.10799 10.629921,0 0,-20.39932 -10.629921,0 0,-21.10799 10.629921,0 0,-20.39932 -10.629921,0 0,-21.10799 10.629921,0 0,-9.94657"
         style="fill:none;stroke:#000000"
         inkscape:label="part"
         id="path4168" />
    </g>
    <g
       id="g4258"
       transform="translate(-30.304574,-15.152287)">
      <path
         inkscape:connector-curvature="0"
         d="m 193.77846,367.19822 18.16626,0 0,10.62992 17.63477,0 0,-10.62992 18.34343,0 0,10.62992 17.63476,0 0,-10.62992 18.34343,0 0,10.62992 17.63477,0 0,-10.62992 18.34343,0 0,10.62992 17.63476,0 0,-10.62992 18.34343,0 0,10.62992 17.63477,0 0,-10.62992 18.34343,0 0,10.62992 17.63476,0 0,-10.62992 18.16627,0"
         style="fill:none;stroke:#000000"
         inkscape:label="part"
         id="path4170" />
      <path
         inkscape:connector-curvature="0"
         d="m 427.63673,367.19822 0,20.93082 -10.62992,0 0,20.39933 10.62992,0 0,21.10798 -10.62992,0 0,20.39933 10.62992,0 0,21.10799 -10.62992,0 0,20.39932 10.62992,0 0,20.93082"
         style="fill:none;stroke:#000000"
         inkscape:label="part"
         id="path4172" />
      <path
         inkscape:connector-curvature="0"
         d="m 427.63673,512.47381 -18.16627,0 0,-10.62992 -17.63476,0 0,10.62992 -18.34343,0 0,-10.62992 -17.63477,0 0,10.62992 -18.34343,0 0,-10.62992 -17.63476,0 0,10.62992 -18.34343,0 0,-10.62992 -17.63477,0 0,10.62992 -18.34343,0 0,-10.62992 -17.63476,0 0,10.62992 -18.34343,0 0,-10.62992 -17.63477,0 0,10.62992 -18.16626,0"
         style="fill:none;stroke:#000000"
         inkscape:label="part"
         id="path4174" />
      <path
         inkscape:connector-curvature="0"
         d="m 193.77846,512.47381 0,-20.93082 10.62992,0 0,-20.39932 -10.62992,0 0,-21.10799 10.62992,0 0,-20.39933 -10.62992,0 0,-21.10798 10.62992,0 0,-20.39933 -10.62992,0 0,-20.93082"
         style="fill:none;stroke:#000000"
         inkscape:label="part"
         id="path4176" />
    </g>
    <g
       id="g4282"
       transform="translate(-614.17274,-2.34678)">
      <path
         inkscape:connector-curvature="0"
         d="m 627.69357,523.92751 17.81193,0 0,-10.62992 18.34343,0 0,10.62992 17.63477,0 0,-10.62992 18.34342,0 0,10.62992 17.63477,0 0,-10.62992 18.34343,0 0,10.62992 17.63477,0 0,-10.62992 18.34342,0 0,10.62992 17.63477,0 0,-10.62992 18.34343,0 0,10.62992 17.63477,0 0,-10.62992 18.34342,0 0,10.62992 17.81194,0"
         style="fill:none;stroke:#000000"
         inkscape:label="part"
         id="path4154-5" />
      <path
         inkscape:connector-curvature="0"
         d="m 861.55184,523.92751 0,10.3009 -10.62992,0 0,20.39932 10.62992,0 0,21.10799 -10.62992,0 0,20.39933 10.62992,0 0,21.10798 -10.62992,0 0,20.39933 10.62992,0 0,10.3009"
         style="fill:none;stroke:#000000"
         inkscape:label="part"
         id="path4156-2" />
      <path
         inkscape:connector-curvature="0"
         d="m 861.55184,647.94326 -17.81194,0 0,10.62992 -18.34342,0 0,-10.62992 -17.63477,0 0,10.62992 -18.34343,0 0,-10.62992 -17.63477,0 0,10.62992 -18.34342,0 0,-10.62992 -17.63477,0 0,10.62992 -18.34343,0 0,-10.62992 -17.63477,0 0,10.62992 -18.34342,0 0,-10.62992 -17.63477,0 0,10.62992 -18.34343,0 0,-10.62992 -17.81193,0"
         style="fill:none;stroke:#000000"
         inkscape:label="part"
         id="path4158-6" />
      <path
         inkscape:connector-curvature="0"
         d="m 627.69357,647.94326 0,-10.3009 10.62992,0 0,-20.39933 -10.62992,0 0,-21.10798 10.62992,0 0,-20.39933 -10.62992,0 0,-21.10799 10.62992,0 0,-20.39932 -10.62992,0 0,-10.3009"
         style="fill:none;stroke:#000000"
         inkscape:label="part"
         id="path4160-6" />
    </g>
    <g
       id="g4270"
       transform="translate(17.395944,146.47212)">
      <path
         inkscape:connector-curvature="0"
         d="m 489.50459,375.10861 9.94657,0 0,-10.62992 21.10799,0 0,10.62992 20.39932,0 0,-10.62992 21.10799,0 0,10.62992 20.39932,0 0,-10.62992 21.10799,0 0,10.62992 9.94657,0"
         style="fill:none;stroke:#000000"
         inkscape:label="part"
         id="path4162-2" />
      <path
         inkscape:connector-curvature="0"
         d="m 613.52034,375.10861 0,9.94657 10.62992,0 0,21.10799 -10.62992,0 0,20.39932 10.62992,0 0,21.10799 -10.62992,0 0,20.39932 10.62992,0 0,21.10799 -10.62992,0 0,9.94657"
         style="fill:none;stroke:#000000"
         inkscape:label="part"
         id="path4164-1" />
      <path
         inkscape:connector-curvature="0"
         d="m 613.52034,499.12436 -9.94657,0 0,10.62992 -21.10799,0 0,-10.62992 -20.39932,0 0,10.62992 -21.10799,0 0,-10.62992 -20.39932,0 0,10.62992 -21.10799,0 0,-10.62992 -9.94657,0"
         style="fill:none;stroke:#000000"
         inkscape:label="part"
         id="path4166-4" />
      <path
         inkscape:connector-curvature="0"
         d="m 489.50459,499.12436 0,-9.94657 -10.62992,0 0,-21.10799 10.62992,0 0,-20.39932 -10.62992,0 0,-21.10799 10.62992,0 0,-20.39932 -10.62992,0 0,-21.10799 10.62992,0 0,-9.94657"
         style="fill:none;stroke:#000000"
         inkscape:label="part"
         id="path4168-6" />
    </g>
    <g
       id="g4276"
       transform="translate(-369.71583,146.47212)">
      <path
         inkscape:connector-curvature="0"
         d="m 627.69357,364.47869 18.16626,0 0,10.62992 17.63477,0 0,-10.62992 18.34343,0 0,10.62992 17.63476,0 0,-10.62992 18.34343,0 0,10.62992 17.63477,0 0,-10.62992 18.34343,0 0,10.62992 17.63476,0 0,-10.62992 18.34343,0 0,10.62992 17.63477,0 0,-10.62992 18.34343,0 0,10.62992 17.63476,0 0,-10.62992 18.16627,0"
         style="fill:none;stroke:#000000"
         inkscape:label="part"
         id="path4170-1" />
      <path
         inkscape:connector-curvature="0"
         d="m 861.55184,364.47869 0,20.93082 -10.62992,0 0,20.39933 10.62992,0 0,21.10798 -10.62992,0 0,20.39933 10.62992,0 0,21.10799 -10.62992,0 0,20.39932 10.62992,0 0,20.93082"
         style="fill:none;stroke:#000000"
         inkscape:label="part"
         id="path4172-6" />
      <path
         inkscape:connector-curvature="0"
         d="m 861.55184,509.75428 -18.16627,0 0,-10.62992 -17.63476,0 0,10.62992 -18.34343,0 0,-10.62992 -17.63477,0 0,10.62992 -18.34343,0 0,-10.62992 -17.63476,0 0,10.62992 -18.34343,0 0,-10.62992 -17.63477,0 0,10.62992 -18.34343,0 0,-10.62992 -17.63476,0 0,10.62992 -18.34343,0 0,-10.62992 -17.63477,0 0,10.62992 -18.16626,0"
         style="fill:none;stroke:#000000"
         inkscape:label="part"
         id="path4174-7" />
      <path
         inkscape:connector-curvature="0"
         d="m 627.69357,509.75428 0,-20.93082 10.62992,0 0,-20.39932 -10.62992,0 0,-21.10799 10.62992,0 0,-20.39933 -10.62992,0 0,-21.10798 10.62992,0 0,-20.39933 -10.62992,0 0,-20.93082"
         style="fill:none;stroke:#000000"
         inkscape:label="part"
         id="path4176-6" />
    </g>
    <path
       style="fill:none;fill-opacity:1;stroke:#000000;stroke-width:0.7086615;stroke-miterlimit:4;stroke-dasharray:none;stroke-opacity:1"
       d="m 46.77729,402.93143 34.724411,0 0,41.81102 -34.724411,0 z"
       id="rect4288" />
    <path
       style="fill:none;fill-opacity:1;stroke:#000000;stroke-width:0.70866144;stroke-miterlimit:4;stroke-dasharray:none;stroke-opacity:1"
       d="m 238.85775,425.0575 a 11.60433,11.604331 0 0 1 -11.60433,11.60433 11.60433,11.604331 0 0 1 -11.60433,-11.60433 11.60433,11.604331 0 0 1 11.60433,-11.60434 11.60433,11.604331 0 0 1 11.60433,11.60434 z"
       id="path4302" />
  </g>
</svg>
